<?xml version="1.0" standalone="no"?><!DOCTYPE svg PUBLIC "-//W3C//DTD SVG 1.1//EN"
        "http://www.w3.org/Graphics/SVG/1.1/DTD/svg11.dtd">
<svg t="1503992550698" class="icon" style="" viewBox="0 0 1024 1024" version="1.1" xmlns="http://www.w3.org/2000/svg"
     p-id="2205" xmlns:xlink="http://www.w3.org/1999/xlink" width="200" height="200">
    <defs>
        <style type="text/css"></style>
    </defs>
    <path d="M638.898155 335.288323l0-89.056292c0-43.924395-34.707476-79.43312-77.695546-79.43312l-86.520539 0c-42.857087 0-77.703733 35.508725-77.703733 79.43312l0 89.056292-102.137215 0 0-89.056292c0.125867-101.464903 80.642668-183.842075 179.840948-183.842075l86.520539 0c99.330286 0 179.840948 82.377172 179.840948 183.842075l0 89.056292L638.898155 335.288323 638.898155 335.288323zM553.98523 961.610044l-83.97967 0c-150.606113 0-272.76636-124.839263-272.76636-278.784424l0-291.857161 629.5216 0 0 291.857161C826.7608 836.770781 704.588273 961.610044 553.98523 961.610044L553.98523 961.610044zM524.876262 511.128143c-39.250956 0-71.022567 32.4429-71.022567 72.493058 0 30.179346 18.023492 56.08025 43.661406 66.897619l0 127.775128c0 15.350616 12.279674 27.767414 27.235294 27.767414 14.94948 0 27.232225-12.416797 27.232225-27.767414L551.98262 650.650827c25.637913-10.948353 43.800575-36.85028 43.800575-67.029626C595.783195 543.572066 563.996235 511.128143 524.876262 511.128143L524.876262 511.128143z"
          p-id="2206" fill="#8a8a8a"></path>
</svg>